Coordinates
version=1
nRows=16
nColumns=22
inDegrees=yes

Units are S.I. units (second, meters, Newtons, ...)
If the header above contains a line with 'inDegrees', this indicates whether rotational values are in degrees (yes) or radians (no).

endheader
time	pelvis_tilt	pelvis_list	pelvis_rotation	pelvis_tx	pelvis_ty	pelvis_tz	hip_flexion_r	hip_adduction_r	hip_rotation_r	knee_angle_r	ankle_angle_r	subtalar_angle_r	hip_flexion_l	hip_adduction_l	hip_rotation_l	knee_angle_l	ankle_angle_l	subtalar_angle_l	lumbar_extension	lumbar_bending	lumbar_rotation
      3.97000000	     -6.49020137	     -4.04039810	    -54.71787960	      0.93468145	      0.83817371	      0.92915195	    -12.07427041	      4.04364800	     13.44603612	    -16.86352467	     26.06983803	     -2.32101116	     32.61838519	    -21.45728319	     -5.36753974	    -10.38076475	      7.01222529	      4.38177424	     -1.48197299	      8.15768338	     28.03752295
      3.98000000	     -6.52105224	     -3.97061877	    -55.23276185	      0.94529931	      0.83603117	      0.93519246	    -12.52961946	      3.50136066	     13.87847776	    -17.35274821	     26.02313001	     -1.80136940	     32.76534844	    -21.62963853	     -5.74436981	    -10.56738513	      7.15433848	      4.18022767	     -1.35532044	      8.18244785	     28.33275674
      3.99000000	     -6.55926910	     -3.90152164	    -55.70682224	      0.95615379	      0.83394005	      0.94117421	    -12.95368744	      2.95918273	     14.29006333	    -17.88111665	     25.86457472	     -1.25968350	     32.89835767	    -21.76945139	     -6.10856891	    -10.92916845	      7.25122598	      3.96255079	     -1.22973023	      8.21518131	     28.55722117
      4.00000000	     -6.60274673	     -3.83619361	    -56.13784310	      0.96724791	      0.83189734	      0.94708987	    -13.35019259	      2.41845082	     14.67310290	    -18.44674964	     25.58441868	     -0.67977519	     33.01214239	    -21.87090299	     -6.45147270	    -11.44679634	      7.27451624	      3.76658157	     -1.11313321	      8.25581690	     28.70883017
      4.01000000	     -6.65438102	     -3.77321459	    -56.51699732	      0.97858185	      0.82988558	      0.95292512	    -13.71583845	      1.88489011	     15.02773980	    -19.05147302	     25.19798253	     -0.09460460	     33.11037776	    -21.92669553	     -6.73824963	    -12.09197562	      7.18303661	      3.64487797	     -1.00313407	      8.30421978	     28.78795540
      4.02000000	     -6.70858463	     -3.69934563	    -56.84770186	      0.99012828	      0.82789661	      0.95868758	    -14.03511370	      1.35236036	     15.36420371	    -19.70890310	     24.69469106	      0.50085286	     33.21043265	    -21.92710218	     -6.98404191	    -12.86880645	      6.92971971	      3.62991363	     -0.89273405	      8.34351572	     28.77883026
      4.03000000	     -6.75088353	     -3.59495572	    -57.10233034	      1.00190453	      0.82592100	      0.96434404	    -14.29127040	      0.80331445	     15.62302379	    -20.43314424	     24.06821544	      1.19855348	     33.33359009	    -21.83265220	     -7.13480305	    -13.76117313	      6.42493697	      3.77334455	     -0.76750460	      8.34456703	     28.67799059
      4.04000000	     -6.76819478	     -3.46894879	    -57.27320832	      1.01388000	      0.82397725	      0.96986487	    -14.48789886	      0.24116206	     15.79619724	    -21.24772248	     23.33733573	      1.94610316	     33.49408422	    -21.63650570	     -7.16691862	    -14.78769775	      5.63852633	      4.12339478	     -0.64844095	      8.29827042	     28.48620730
      4.05000000	     -6.74652775	     -3.30987030	    -57.37460839	      1.02599726	      0.82210040	      0.97526121	    -14.61050276	     -0.34320773	     15.92209219	    -22.17530369	     22.50208349	      2.66181236	     33.70740779	    -21.33623326	     -7.12425976	    -15.96239341	      4.55347169	      4.65387664	     -0.53713039	      8.18213126	     28.21101123
      4.06000000	     -6.67563956	     -3.13310464	    -57.41856178	      1.03822224	      0.82035782	      0.98054854	    -14.67054685	     -0.94776606	     16.01081232	    -23.22260883	     21.48363048	      3.48125842	     33.97064509	    -20.94457266	     -7.00557279	    -17.30252269	      3.26493722	      5.42561014	     -0.45621410	      7.99429496	     27.89459017
      4.07000000	     -6.52261415	     -2.91087499	    -57.37749208	      1.05054262	      0.81876820	      0.98569231	    -14.64947479	     -1.60075087	     16.01899179	    -24.41874881	     20.36807921	      4.24872259	     34.30580839	    -20.40779823	     -6.80083264	    -18.81094151	      1.80397391	      6.31537018	     -0.39796535	      7.68338219	     27.50001788
      4.08000000	     -6.27210883	     -2.66319815	    -57.25198467	      1.06293132	      0.81741563	      0.99069942	    -14.56339560	     -2.30044351	     15.92387910	    -25.77200317	     19.10723913	      4.97867503	     34.69106016	    -19.72856100	     -6.52625780	    -20.49615640	      0.37374201	      7.25064185	     -0.39239206	      7.24787115	     27.05329318
      4.09000000	     -5.91626027	     -2.40106658	    -57.04593981	      1.07533093	      0.81639414	      0.99561003	    -14.42210006	     -3.03645557	     15.74684517	    -27.28202303	     17.64917703	      5.63413061	     35.08183541	    -18.91094841	     -6.21179783	    -22.31414922	     -0.85636928	      8.09288737	     -0.45307943	      6.68302967	     26.55288420
      4.10000000	     -5.45849394	     -2.13790777	    -56.75438633	      1.08769207	      0.81576804	      1.00043616	    -14.22892645	     -3.79356285	     15.46800632	    -28.94448119	     15.99445007	      6.17109062	     35.44111017	    -17.96342941	     -5.87742110	    -24.21804808	     -1.75093214	      8.71858002	     -0.58921523	      5.99914815	     26.02746086
      4.11000000	     -4.92322659	     -1.90048545	    -56.36915706	      1.09997016	      0.81560390	      1.00519939	    -14.00734594	     -4.52714964	     15.10016557	    -30.72129975	     14.12977227	      6.45603992	     35.72352762	    -16.91475263	     -5.53320999	    -26.12786027	     -2.28173478	      9.00577744	     -0.80678676	      5.23758113	     25.47273523
      4.12000000	     -4.36695031	     -1.67648537	    -55.94941437	      1.11204339	      0.81587163	      1.00991345	    -13.67084871	     -5.20488353	     14.73451886	    -32.65145855	     12.06078399	      6.80376526	     35.91657267	    -15.84088002	     -5.25618619	    -27.96493959	     -2.37339506	      9.14940510	     -1.06360063	      4.45545466	     24.92775323
